<svg xmlns="http://www.w3.org/2000/svg" xmlns:xlink="http://www.w3.org/1999/xlink" width="197" height="149" viewBox="0 0 197 149">
  <defs>
    <filter id="Path_29" x="26" y="0" width="149" height="149" filterUnits="userSpaceOnUse">
      <feOffset dx="-1" dy="2" input="SourceAlpha"/>
      <feGaussianBlur stdDeviation="1.5" result="blur"/>
      <feFlood flood-color="#4c4e53" flood-opacity="0.161"/>
      <feComposite operator="in" in2="blur"/>
      <feComposite in="SourceGraphic"/>
    </filter>
    <filter id="Path_30" x="43" y="54" width="154" height="44" filterUnits="userSpaceOnUse">
      <feOffset dx="-1" dy="2" input="SourceAlpha"/>
      <feGaussianBlur stdDeviation="1.5" result="blur-2"/>
      <feFlood flood-color="#4c4e53" flood-opacity="0.161"/>
      <feComposite operator="in" in2="blur-2"/>
      <feComposite in="SourceGraphic"/>
    </filter>
    <filter id="Path_35" x="0" y="97" width="154" height="44" filterUnits="userSpaceOnUse">
      <feOffset dx="-1" dy="2" input="SourceAlpha"/>
      <feGaussianBlur stdDeviation="1.5" result="blur-3"/>
      <feFlood flood-color="#4c4e53" flood-opacity="0.161"/>
      <feComposite operator="in" in2="blur-3"/>
      <feComposite in="SourceGraphic"/>
    </filter>
    <filter id="Path_40" x="0" y="11" width="154" height="44" filterUnits="userSpaceOnUse">
      <feOffset dx="-1" dy="2" input="SourceAlpha"/>
      <feGaussianBlur stdDeviation="1.5" result="blur-4"/>
      <feFlood flood-color="#4c4e53" flood-opacity="0.161"/>
      <feComposite operator="in" in2="blur-4"/>
      <feComposite in="SourceGraphic"/>
    </filter>
  </defs>
  <g id="empty-state" transform="translate(-0.5 2.5)">
    <g transform="matrix(1, 0, 0, 1, 0.5, -2.5)" filter="url(#Path_29)">
      <path id="Path_29-2" data-name="Path 29" d="M162,0H42A10,10,0,0,0,32,10V130a10,10,0,0,0,10,10H162a10,10,0,0,0,10-10V10A10,10,0,0,0,162,0Z" transform="translate(-0.5 2.5)" fill="#eef8ff"/>
    </g>
    <g id="Group_6" data-name="Group 6">
      <g transform="matrix(1, 0, 0, 1, 0.5, -2.5)" filter="url(#Path_30)">
        <path id="Path_30-2" data-name="Path 30" d="M54,54H189a5,5,0,0,1,5,5V84a5,5,0,0,1-5,5H54a5,5,0,0,1-5-5V59a5,5,0,0,1,5-5Z" transform="translate(-0.5 2.5)" fill="#fff"/>
      </g>
    </g>
    <path id="Path_31" data-name="Path 31" d="M128,62H102a3,3,0,0,0,0,6h26a3,3,0,0,0,0-6Z" fill="#b4daff"/>
    <path id="Path_32" data-name="Path 32" d="M146,75H102a3,3,0,0,0,0,6h44a3,3,0,0,0,0-6Z" fill="#dee9fc"/>
    <path id="Path_33" data-name="Path 33" d="M79.5,81A9.5,9.5,0,1,0,70,71.5,9.5,9.5,0,0,0,79.5,81Z" fill="#1485fd"/>
    <path id="Path_34" data-name="Path 34" d="M78.7,74h.784l-1.82-4.823h-.805L75.042,74h.791l.462-1.2h1.946Zm-1.435-3.892.721,2.023H76.547Zm4.819-.245a.762.762,0,0,1,.742.847.77.77,0,0,1-.77.84H80.911V69.863ZM80.162,74h.749V72.229H82.1a1.527,1.527,0,0,0,0-3.052H80.162Z" fill="#fff"/>
    <g id="Group_7" data-name="Group 7">
      <g transform="matrix(1, 0, 0, 1, 0.5, -2.5)" filter="url(#Path_35)">
        <path id="Path_35-2" data-name="Path 35" d="M11,97H146a5,5,0,0,1,5,5v25a5,5,0,0,1-5,5H11a5,5,0,0,1-5-5V102a5,5,0,0,1,5-5Z" transform="translate(-0.5 2.5)" fill="#fff"/>
      </g>
    </g>
    <path id="Path_36" data-name="Path 36" d="M85,105H59a3,3,0,0,0,0,6H85a3,3,0,0,0,0-6Z" fill="#b4daff"/>
    <path id="Path_37" data-name="Path 37" d="M103,118H59a3,3,0,0,0,0,6h44a3,3,0,0,0,0-6Z" fill="#dee9fc"/>
    <path id="Path_38" data-name="Path 38" d="M23.5,124a9.5,9.5,0,1,0-9.5-9.5A9.5,9.5,0,0,0,23.5,124Z" fill="#1485fd"/>
    <path id="Path_39" data-name="Path 39" d="M19.923,117.631a1.4,1.4,0,0,0,1.5-1.575v-4.879h-.721v4.879c0,.476-.217.882-.784.882a2.327,2.327,0,0,1-.49-.056l-.07.672A3.04,3.04,0,0,0,19.923,117.631Zm4.22-1.561a1.5,1.5,0,0,0,1.631-1.442c0-.707-.511-1.148-1.323-1.351l-.609-.154c-.609-.154-.658-.476-.658-.63a.867.867,0,0,1,1.715.049h.714a1.425,1.425,0,0,0-1.547-1.421,1.472,1.472,0,0,0-1.6,1.386c0,.4.168,1.008,1.2,1.267l.616.154c.392.1.777.308.777.735a.807.807,0,0,1-.91.749.923.923,0,0,1-1-.812h-.714A1.578,1.578,0,0,0,24.143,116.07Z" fill="#fff"/>
    <g id="Group_8" data-name="Group 8">
      <g transform="matrix(1, 0, 0, 1, 0.5, -2.5)" filter="url(#Path_40)">
        <path id="Path_40-2" data-name="Path 40" d="M146,11H11a5,5,0,0,0-5,5V41a5,5,0,0,0,5,5H146a5,5,0,0,0,5-5V16A5,5,0,0,0,146,11Z" transform="translate(-0.5 2.5)" fill="#fff"/>
      </g>
    </g>
    <path id="Path_41" data-name="Path 41" d="M83,19H57a3,3,0,0,0,0,6H83a3,3,0,0,0,0-6Z" fill="#b4daff"/>
    <path id="Path_42" data-name="Path 42" d="M101,32H57a3,3,0,0,0,0,6h44a3,3,0,0,0,0-6Z" fill="#dee9fc"/>
    <path id="Path_43" data-name="Path 43" d="M36.5,38A9.5,9.5,0,1,0,27,28.5,9.5,9.5,0,0,0,36.5,38Z" fill="#1485fd"/>
    <path id="Path_44" data-name="Path 44" d="M31.825,28.6a1.578,1.578,0,0,0,1.7,1.47,1.516,1.516,0,0,0,1.645-1.3c.077-.7-.322-1.239-1.3-1.5l-.616-.161c-.574-.147-.644-.441-.644-.63a.754.754,0,0,1,.833-.665.74.74,0,0,1,.84.728h.742a1.429,1.429,0,0,0-1.568-1.428A1.471,1.471,0,0,0,31.867,26.5c0,.427.161,1.015,1.2,1.3l.609.154c.448.105.791.336.763.784a.81.81,0,0,1-.91.658.9.9,0,0,1-.959-.791Zm5.042-2.73H38c.945,0,1.428.777,1.428,1.729S38.945,29.314,38,29.314H36.866ZM38,30a2.164,2.164,0,0,0,2.17-2.4A2.182,2.182,0,0,0,38,25.177H36.124V30Z" fill="#fff"/>
  </g>
</svg>
